HIERARCHY
ROOT Hips
{
	OFFSET 0.00000 0.00000 0.00000
	CHANNELS 6 Xposition Yposition Zposition Zrotation Yrotation Xrotation 
	JOINT LHipJoint
	{
		OFFSET 0 0 0
		CHANNELS 3 Zrotation Yrotation Xrotation
		JOINT LeftUpLeg
		{
			OFFSET 1.41496 -1.84582 0.78394
			CHANNELS 3 Zrotation Yrotation Xrotation
			JOINT LeftLeg
			{
				OFFSET 2.58040 -7.08960 0.00000
				CHANNELS 3 Zrotation Yrotation Xrotation
				JOINT LeftFoot
				{
					OFFSET 2.64719 -7.27309 0.00000
					CHANNELS 3 Zrotation Yrotation Xrotation
					JOINT LeftToeBase
					{
						OFFSET 0.20718 -0.56921 2.20259
						CHANNELS 3 Zrotation Yrotation Xrotation
						End Site
						{
							OFFSET 0.00000 -0.00000 1.14243
						}
					}
				}
			}
		}
	}
	JOINT RHipJoint
	{
		OFFSET 0 0 0
		CHANNELS 3 Zrotation Yrotation Xrotation
		JOINT RightUpLeg
		{
			OFFSET -1.40551 -1.84582 0.78394
			CHANNELS 3 Zrotation Yrotation Xrotation
			JOINT RightLeg
			{
				OFFSET -2.56572 -7.04926 0.00000
				CHANNELS 3 Zrotation Yrotation Xrotation
				JOINT RightFoot
				{
					OFFSET -2.57974 -7.08778 0.00000
					CHANNELS 3 Zrotation Yrotation Xrotation
					JOINT RightToeBase
					{
						OFFSET -0.26704 -0.73369 2.20815
						CHANNELS 3 Zrotation Yrotation Xrotation
						End Site
						{
							OFFSET -0.00000 -0.00000 1.16246
						}
					}
				}
			}
		}
	}
	JOINT LowerBack
	{
		OFFSET 0 0 0
		CHANNELS 3 Zrotation Yrotation Xrotation
		JOINT Spine
		{
			OFFSET -0.04690 2.05196 -0.07017
			CHANNELS 3 Zrotation Yrotation Xrotation
			JOINT Spine1
			{
				OFFSET 0.04085 2.05260 0.00800
				CHANNELS 3 Zrotation Yrotation Xrotation
				JOINT Neck
				{
					OFFSET 0 0 0
					CHANNELS 3 Zrotation Yrotation Xrotation
					JOINT Neck1
					{
						OFFSET -0.03582 1.80995 0.19301
						CHANNELS 3 Zrotation Yrotation Xrotation
						JOINT Head
						{
							OFFSET 0.00952 1.80195 -0.36389
							CHANNELS 3 Zrotation Yrotation Xrotation
							End Site
							{
								OFFSET 0.00392 1.85062 -0.14494
							}
						}
					}
				}
				JOINT LeftShoulder
				{
					OFFSET 0 0 0
					CHANNELS 3 Zrotation Yrotation Xrotation
					JOINT LeftArm
					{
						OFFSET 3.55224 1.39726 -0.13667
						CHANNELS 3 Zrotation Yrotation Xrotation
						JOINT LeftForeArm
						{
							OFFSET 5.14507 -0.00000 -0.00000
							CHANNELS 3 Zrotation Yrotation Xrotation
							JOINT LeftHand
							{
								OFFSET 3.50646 -0.00000 0.00000
								CHANNELS 3 Zrotation Yrotation Xrotation
								JOINT LeftFingerBase
								{
									OFFSET 0 0 0
									CHANNELS 3 Zrotation Yrotation Xrotation
									JOINT LeftHandIndex1
									{
										OFFSET 0.62997 -0.00000 0.00000
										CHANNELS 3 Zrotation Yrotation Xrotation
										End Site
										{
											OFFSET 0.50790 -0.00000 0.00000
										}
									}
								}
								JOINT LThumb
								{
									OFFSET 0 0 0
									CHANNELS 3 Zrotation Yrotation Xrotation
									End Site
									{
										OFFSET 0.51565 -0.00000 0.51565
									}
								}
							}
						}
					}
				}
				JOINT RightShoulder
				{
					OFFSET 0 0 0
					CHANNELS 3 Zrotation Yrotation Xrotation
					JOINT RightArm
					{
						OFFSET -3.06467 1.61290 -0.28813
						CHANNELS 3 Zrotation Yrotation Xrotation
						JOINT RightForeArm
						{
							OFFSET -5.23200 -0.00000 -0.00000
							CHANNELS 3 Zrotation Yrotation Xrotation
							JOINT RightHand
							{
								OFFSET -3.65641 -0.00000 0.00000
								CHANNELS 3 Zrotation Yrotation Xrotation
								JOINT RightFingerBase
								{
									OFFSET 0 0 0
									CHANNELS 3 Zrotation Yrotation Xrotation
									JOINT RightHandIndex1
									{
										OFFSET -0.65681 -0.00000 0.00000
										CHANNELS 3 Zrotation Yrotation Xrotation
										End Site
										{
											OFFSET -0.52953 -0.00000 0.00000
										}
									}
								}
								JOINT RThumb
								{
									OFFSET 0 0 0
									CHANNELS 3 Zrotation Yrotation Xrotation
									End Site
									{
										OFFSET -0.53762 -0.00000 0.53762
									}
								}
							}
						}
					}
				}
			}
		}
	}
}
MOTION
Frames: 13
Frame Time: .0083333
19.2594 14.4365 42.4088 0 0 0 0 0 0 -21 0 0 0 0 0 0 0 0 0 0 0 0 0 0 21 0 0 0 0 0 0 0 0 0 0 0 0 0 0 0 0 0 0 0 0 0 0 -16 0 0 21 0 0 11 0 0 0 -8 0 0 0 0 0 0 0 0 0 0 0 0 0 0 0 0 0 0 0 0 8 0 0 0 0 0 0 0 0 0 0 0 0 0 0 0 0 0
19.2594 14.4365 42.4088 -175.8680 -17.8147 -148.0430 0.0000 0.0000 0.0000 -4.3341 -16.4371 -85.4508 15.7390 19.5590 77.4530 1.6089 -8.3401 -22.7132 0.1397 2.4092 6.6380 0.0000 0.0000 0.0000 23.2085 5.4801 -7.9948 -6.1979 -14.6174 45.7708 -0.4266 -8.8799 12.3358 -4.5960 12.9138 -39.0467 3.5970 1.7674 18.1511 -0.0606 3.0417 -0.8636 -2.9286 1.1878 -10.9797 -1.1418 -1.6848 -19.0646 0.2850 -2.9586 -5.0922 0.0691 -1.8677 1.6046 -0.0000 0.0000 0.0000 -69.5533 46.2228 44.5833 87.0947 -59.9681 -57.4842 -0.0000 0.0000 -14.2169 29.9530 -12.1827 -6.9335 -7.1250 0.0000 -0.0000 1.8803 15.9932 -1.2902 -0.0000 0.0000 0.0000 74.6491 4.3086 41.6578 -119.9592 56.3208 -85.6249 0.0000 0.0000 2.6416 -21.5001 -4.3016 1.6924 7.1250 -0.0000 -0.0000 4.2522 -34.5774 1.0904
19.1398 14.5113 42.0182 -177.4870 -19.4579 -148.3090 0.0000 0.0000 0.0000 -6.1902 -17.9578 -82.3560 15.6183 19.5333 77.0924 1.7336 -9.1856 -23.6058 0.1554 2.5399 7.0003 0.0000 0.0000 0.0000 22.1350 4.3278 -10.2527 -7.5749 -15.7975 51.0168 -0.1869 -9.2529 9.4332 -4.6529 12.9819 -39.3009 3.6022 1.0187 19.3281 -0.1804 2.0424 -0.4232 -2.8255 0.6979 -11.2202 -1.3869 -1.7180 -18.9587 0.2163 -3.0207 -5.7293 0.0923 -1.9256 1.3708 0.0000 -0.0000 0.0000 -71.5594 43.5146 43.1542 85.3057 -59.9166 -55.9357 -0.0000 0.0000 -15.1766 30.4691 -11.6170 -6.7563 -7.1250 0.0000 -0.0000 2.2909 16.5713 -1.5436 0.0000 -0.0000 0.0000 75.2408 2.7134 41.5024 -116.8819 57.0851 -83.0526 0.0000 0.0000 1.7488 -22.3323 -4.5793 1.8784 7.1250 -0.0000 -0.0000 3.5866 -34.9108 0.8900
19.0526 14.5618 41.6384 -178.5410 -19.6110 -148.1320 0.0000 0.0000 0.0000 -8.0363 -17.8874 -80.2068 15.5602 19.5207 76.9185 1.9069 -9.6200 -24.7815 0.1442 2.4472 6.7433 0.0000 0.0000 0.0000 20.6791 4.7948 -12.8641 -9.1384 -16.8959 56.5675 0.0370 -10.0024 6.3753 -4.1407 12.3453 -36.9647 2.5454 0.9119 20.2057 -0.3242 1.6542 -0.3168 -2.2948 0.5578 -11.6503 -1.4031 -1.6777 -19.0354 0.0736 -2.9989 -5.9756 0.0521 -1.9339 1.2971 -0.0000 0.0000 0.0000 -73.6233 40.9542 41.6020 83.2628 -59.8278 -54.1688 -0.0000 0.0000 -15.6372 30.5544 -11.3815 -6.6447 -7.1250 0.0000 -0.0000 2.3728 16.8298 -1.5856 -0.0000 0.0000 0.0000 76.0769 0.8692 41.3173 -113.2944 57.8470 -80.0277 0.0000 0.0000 1.1140 -22.9156 -5.0016 2.1107 7.1250 -0.0000 -0.0000 3.1340 -35.3933 0.7406
18.9594 14.6028 41.2582 -179.7770 -19.9483 -147.7490 0.0000 0.0000 0.0000 -9.9554 -18.0176 -78.0817 15.4894 19.5051 76.7066 2.0832 -10.0299 -25.9277 0.1301 2.3247 6.4038 0.0000 0.0000 0.0000 19.0316 4.8873 -15.9274 -10.6854 -17.7777 61.7557 0.2234 -10.6148 3.1182 -3.9094 12.0388 -35.8695 1.5337 0.7601 20.5378 -0.4233 1.1864 -0.0667 -1.6909 0.3913 -11.5980 -1.4947 -1.6412 -18.9507 -0.0268 -2.9894 -6.4707 0.0423 -1.9529 1.1137 -0.0000 0.0000 0.0000 -75.7612 37.8657 40.0994 80.6793 -59.6692 -51.9370 -0.0000 0.0000 -15.7630 30.3543 -11.2284 -6.5055 -7.1250 0.0000 -0.0000 2.2487 17.0301 -1.4927 -0.0000 0.0000 0.0000 76.9654 -0.6898 40.7611 -108.7809 58.6244 -76.1896 0.0000 0.0000 0.2992 -23.4379 -5.1860 2.2441 7.1250 -0.0000 -0.0000 2.7122 -35.6184 0.6258
18.8519 14.6520 40.8660 -180.6350 -20.3623 -147.6010 0.0000 0.0000 0.0000 -11.5124 -17.9794 -75.6967 15.4119 19.4876 76.4744 2.3228 -10.4983 -27.4138 0.1071 2.1100 5.8098 0.0000 0.0000 0.0000 17.7911 4.9146 -19.7489 -12.2394 -18.4900 66.7456 0.3649 -10.9804 -1.1175 -3.7138 11.7695 -34.9213 0.9671 0.4826 20.9787 -0.4834 0.6651 0.0769 -1.2810 0.1726 -11.7095 -1.3041 -1.4557 -19.0337 0.0263 -2.8144 -6.7030 0.0394 -1.8815 1.0464 0.0000 0.0000 0.0000 -77.7690 34.5377 38.6941 77.4606 -59.3975 -49.1625 -0.0000 0.0000 -15.1017 30.3820 -11.9468 -6.9196 -7.1250 0.0000 -0.0000 2.1986 16.2056 -1.4987 0.0000 0.0000 0.0000 78.5275 -2.3339 40.0032 -101.7025 59.4762 -70.1168 0.0000 -0.0000 -0.0593 -24.1295 -5.2910 2.3654 7.1250 -0.0000 -0.0000 2.1418 -35.7673 0.4862
18.7523 14.6775 40.4868 -181.5530 -20.8741 -147.3940 0.0000 0.0000 0.0000 -12.9444 -18.0066 -73.5289 15.3558 19.4748 76.3060 2.5181 -10.9965 -28.5772 0.0919 1.9556 5.3829 0.0000 0.0000 0.0000 16.4366 4.8430 -23.1112 -13.7796 -19.0458 71.5303 0.4382 -11.6378 -4.4685 -3.4241 11.3519 -33.4760 0.4478 0.2041 21.4697 -0.5463 0.1472 0.2261 -0.8967 -0.0474 -11.8321 -1.2589 -1.3529 -19.0427 0.0827 -2.7276 -7.0241 0.0583 -1.8544 0.9392 0.0000 -0.0000 0.0000 -79.4588 31.3349 37.6358 74.6906 -59.0956 -46.7819 -0.0000 0.0000 -14.7277 30.5219 -12.2518 -7.1312 -7.1250 0.0000 -0.0000 2.2644 15.8386 -1.5616 0.0000 -0.0000 0.0000 79.7789 -3.9235 39.0676 -95.5853 59.8818 -64.8351 0.0000 -0.0000 -0.8699 -24.5383 -5.5694 2.5369 7.1250 -0.0000 -0.0000 1.8171 -36.0930 0.3980
18.6530 14.6928 40.1089 -182.3310 -21.3774 -147.1920 0.0000 0.0000 0.0000 -14.1784 -17.9208 -71.4810 15.3225 19.4671 76.2061 2.7115 -11.4901 -29.6906 0.0744 1.7598 4.8424 0.0000 0.0000 0.0000 15.1325 4.8569 -26.6853 -15.2731 -19.4557 76.0580 0.4428 -12.0810 -7.7006 -3.1915 10.9987 -32.2755 0.0336 -0.0777 21.8838 -0.5832 -0.3468 0.3390 -0.5452 -0.2594 -11.9431 -1.1900 -1.2392 -19.0427 0.2120 -2.6254 -7.3087 0.0969 -1.8164 0.8439 -0.0000 -0.0000 0.0000 -81.0022 28.0259 36.7596 71.8192 -58.7134 -44.3230 -0.0000 0.0000 -14.0140 30.7213 -12.6080 -7.3909 -7.1250 0.0000 -0.0000 2.3644 15.4040 -1.6529 -0.0000 -0.0000 0.0000 81.1113 -5.4863 37.8805 -88.8359 59.9949 -58.9919 0.0000 -0.0000 -1.7522 -24.8778 -5.8796 2.7196 7.1250 -0.0000 -0.0000 1.5511 -36.4522 0.3261
18.5535 14.6981 39.7317 -183.0070 -21.9528 -147.0170 0.0000 0.0000 0.0000 -15.2056 -17.8026 -69.5209 15.3257 19.4679 76.2157 2.8959 -12.0096 -30.7218 0.0552 1.5156 4.1687 0.0000 0.0000 0.0000 13.8903 4.8995 -30.4527 -16.7041 -19.7375 80.3229 0.3794 -12.2950 -10.7286 -3.0412 10.7614 -31.4794 -0.2417 -0.3930 22.2397 -0.5864 -0.8452 0.4291 -0.2299 -0.4784 -12.0411 -1.1147 -1.1257 -19.0152 0.4100 -2.5194 -7.5726 0.1563 -1.7736 0.7523 -0.0000 0.0000 0.0000 -82.3891 24.6462 36.1094 68.9849 -58.2637 -41.9065 -0.0000 0.0000 -12.9753 31.0040 -12.9986 -7.6981 -7.1250 0.0000 -0.0000 2.5157 14.9166 -1.7851 -0.0000 0.0000 0.0000 82.4673 -7.0210 36.4405 -81.6454 59.7346 -52.7712 0.0000 -0.0000 -2.7477 -25.1995 -6.2036 2.9109 7.1250 -0.0000 -0.0000 1.2997 -36.8272 0.2613
18.4551 14.6930 39.3545 -183.5870 -22.5894 -146.8840 0.0000 0.0000 0.0000 -16.0307 -17.6446 -67.6474 15.3692 19.4779 76.3464 3.0644 -12.5691 -31.6435 0.0355 1.2159 3.3430 0.0000 0.0000 0.0000 12.6834 5.0067 -34.3623 -18.0470 -19.9083 84.2813 0.2531 -12.2586 -13.5030 -2.9396 10.5966 -30.9312 -0.4121 -0.7310 22.5559 -0.5517 -1.3401 0.4959 0.0702 -0.6985 -12.1388 -1.0405 -1.0204 -18.9686 0.6638 -2.4176 -7.7991 0.2330 -1.7298 0.6712 0.0000 0.0000 0.0000 -83.6283 21.2715 35.7159 66.3848 -57.7842 -39.7008 -0.0000 0.0000 -11.6634 31.3496 -13.3379 -7.9998 -7.1250 0.0000 -0.0000 2.7129 14.4764 -1.9508 0.0000 0.0000 0.0000 83.7907 -8.5478 34.7705 -74.3166 59.0499 -46.4611 0.0000 -0.0000 -3.8665 -25.5455 -6.5591 3.1250 7.1250 -0.0000 -0.0000 1.0283 -37.2405 0.1964
18.3581 14.6773 38.9768 -184.1030 -23.2736 -146.7970 0.0000 0.0000 0.0000 -16.6876 -17.4526 -65.8389 15.4533 19.4970 76.5985 3.2128 -13.1727 -32.4441 0.0172 0.8458 2.3246 0.0000 0.0000 0.0000 11.4596 5.1780 -38.3812 -19.2799 -19.9876 87.8941 0.0831 -12.0289 -15.9445 -2.8917 10.5176 -30.6696 -0.5263 -1.0793 22.8290 -0.4773 -1.8270 0.5504 0.3827 -0.9152 -12.2219 -0.9815 -0.9317 -18.9043 0.9588 -2.3283 -7.9882 0.3242 -1.6894 0.6008 0.0000 -0.0000 0.0000 -84.7431 17.9748 35.6177 64.2364 -57.3370 -37.8875 -0.0000 0.0000 -10.1904 31.7063 -13.5908 -8.2597 -7.1250 0.0000 -0.0000 2.9251 14.1311 -2.1253 0.0000 -0.0000 0.0000 85.0205 -10.0842 32.9010 -67.2044 57.9425 -40.3948 0.0000 -0.0000 -5.1513 -25.9489 -6.9465 3.3682 7.1250 -0.0000 -0.0000 0.7083 -37.6953 0.1274
18.2634 14.6511 38.5969 -184.5920 -24.0069 -146.7800 0.0000 0.0000 0.0000 -17.2154 -17.2328 -64.0279 15.5727 19.5234 76.9560 3.3390 -13.8514 -33.1245 0.0041 0.4141 1.1379 0.0000 0.0000 0.0000 10.1735 5.3810 -42.4382 -20.3852 -19.9964 91.1264 -0.1143 -11.6637 -18.0904 -2.8910 10.5165 -30.6661 -0.6370 -1.4307 23.0894 -0.3576 -2.3104 0.6052 0.7457 -1.1280 -12.2913 -0.9498 -0.8643 -18.8419 1.2764 -2.2552 -8.1193 0.4255 -1.6536 0.5510 0.0000 0.0000 0.0000 -85.7583 14.8459 35.8664 62.7818 -57.0068 -36.6652 -0.0000 0.0000 -8.7510 31.9983 -13.7582 -8.4523 -7.1250 0.0000 -0.0000 3.1022 13.8925 -2.2700 0.0000 0.0000 0.0000 86.1012 -11.6658 30.8843 -60.6202 56.4729 -34.8576 0.0000 -0.0000 -6.6270 -26.4226 -7.3308 3.6279 7.1250 -0.0000 -0.0000 0.3256 -38.1545 0.0549
18.1704 14.6158 38.2134 -185.0660 -24.7805 -146.8370 0.0000 0.0000 0.0000 -17.6336 -16.9811 -62.1708 15.7134 19.5536 77.3767 3.4434 -14.6154 -33.6971 0.0002 -0.0795 -0.2185 0.0000 0.0000 0.0000 8.7869 5.6064 -46.4864 -21.3477 -19.9564 93.9431 -0.3350 -11.1809 -20.0374 -2.9119 10.5511 -30.7803 -0.7672 -1.7786 23.3379 -0.1911 -2.7881 0.6666 1.1729 -1.3350 -12.3375 -0.9498 -0.8192 -18.8084 1.5971 -2.1994 -8.1775 0.5313 -1.6230 0.5308 -0.0000 -0.0000 0.0000 -86.6795 11.9723 36.5187 62.2555 -56.8816 -36.2241 -0.0000 0.0000 -7.5622 32.1706 -13.9086 -8.5980 -7.1250 0.0000 -0.0000 3.2000 13.6914 -2.3554 -0.0000 -0.0000 0.0000 86.9945 -13.3308 28.7920 -54.7874 54.7529 -30.0423 0.0000 -0.0000 -8.2404 -26.9766 -7.6489 3.8759 7.1250 -0.0000 -0.0000 -0.1331 -38.5494 -0.0211
